<svg id="SvgjsSvg1006" width="2511" height="1266.390625" xmlns="http://www.w3.org/2000/svg" version="1.1" xmlns:xlink="http://www.w3.org/1999/xlink" xmlns:svgjs="http://svgjs.com/svgjs"><defs id="SvgjsDefs1007"><marker id="SvgjsMarker1018" markerWidth="16" markerHeight="12" refX="0" refY="6" viewBox="0 0 16 12" orient="auto" markerUnits="userSpaceOnUse"><path id="SvgjsPath1019" d="M15,1.5 L2,6 L15,10.5" fill="#323232" stroke="#323232" stroke-width="2"></path></marker><marker id="SvgjsMarker1060" markerWidth="16" markerHeight="12" refX="16" refY="6" viewBox="0 0 16 12" orient="auto" markerUnits="userSpaceOnUse"><path id="SvgjsPath1061" d="M0,2 L14,6 L0,11 L0,2" fill="#323232" stroke="#323232" stroke-width="2"></path></marker><marker id="SvgjsMarker1076" markerWidth="16" markerHeight="12" refX="16" refY="6" viewBox="0 0 16 12" orient="auto" markerUnits="userSpaceOnUse"><path id="SvgjsPath1077" d="M0,2 L14,6 L0,11 L0,2" fill="#323232" stroke="#323232" stroke-width="2"></path></marker><marker id="SvgjsMarker1088" markerWidth="16" markerHeight="12" refX="16" refY="6" viewBox="0 0 16 12" orient="auto" markerUnits="userSpaceOnUse"><path id="SvgjsPath1089" d="M0,2 L14,6 L0,11 L0,2" fill="#323232" stroke="#323232" stroke-width="2"></path></marker><marker id="SvgjsMarker1104" markerWidth="16" markerHeight="12" refX="16" refY="6" viewBox="0 0 16 12" orient="auto" markerUnits="userSpaceOnUse"><path id="SvgjsPath1105" d="M0,2 L14,6 L0,11 L0,2" fill="#323232" stroke="#323232" stroke-width="2"></path></marker><marker id="SvgjsMarker1116" markerWidth="16" markerHeight="12" refX="16" refY="6" viewBox="0 0 16 12" orient="auto" markerUnits="userSpaceOnUse"><path id="SvgjsPath1117" d="M0,2 L14,6 L0,11 L0,2" fill="#323232" stroke="#323232" stroke-width="2"></path></marker><marker id="SvgjsMarker1134" markerWidth="16" markerHeight="12" refX="16" refY="6" viewBox="0 0 16 12" orient="auto" markerUnits="userSpaceOnUse"><path id="SvgjsPath1135" d="M0,2 L14,6 L0,11 L0,2" fill="#323232" stroke="#323232" stroke-width="2"></path></marker><marker id="SvgjsMarker1144" markerWidth="16" markerHeight="12" refX="16" refY="6" viewBox="0 0 16 12" orient="auto" markerUnits="userSpaceOnUse"><path id="SvgjsPath1145" d="M0,2 L14,6 L0,11 L0,2" fill="#323232" stroke="#323232" stroke-width="2"></path></marker><marker id="SvgjsMarker1148" markerWidth="16" markerHeight="12" refX="16" refY="6" viewBox="0 0 16 12" orient="auto" markerUnits="userSpaceOnUse"><path id="SvgjsPath1149" d="M0,2 L14,6 L0,11 L0,2" fill="#323232" stroke="#323232" stroke-width="2"></path></marker><marker id="SvgjsMarker1172" markerWidth="16" markerHeight="12" refX="16" refY="6" viewBox="0 0 16 12" orient="auto" markerUnits="userSpaceOnUse"><path id="SvgjsPath1173" d="M0,2 L14,6 L0,11 L0,2" fill="#323232" stroke="#323232" stroke-width="2"></path></marker><marker id="SvgjsMarker1196" markerWidth="16" markerHeight="12" refX="16" refY="6" viewBox="0 0 16 12" orient="auto" markerUnits="userSpaceOnUse"><path id="SvgjsPath1197" d="M0,2 L14,6 L0,11 L0,2" fill="#323232" stroke="#323232" stroke-width="2"></path></marker><marker id="SvgjsMarker1218" markerWidth="16" markerHeight="12" refX="16" refY="6" viewBox="0 0 16 12" orient="auto" markerUnits="userSpaceOnUse"><path id="SvgjsPath1219" d="M0,2 L14,6 L0,11 L0,2" fill="#323232" stroke="#323232" stroke-width="2"></path></marker><marker id="SvgjsMarker1242" markerWidth="16" markerHeight="12" refX="16" refY="6" viewBox="0 0 16 12" orient="auto" markerUnits="userSpaceOnUse"><path id="SvgjsPath1243" d="M0,2 L14,6 L0,11 L0,2" fill="#323232" stroke="#323232" stroke-width="2"></path></marker><marker id="SvgjsMarker1246" markerWidth="16" markerHeight="12" refX="16" refY="6" viewBox="0 0 16 12" orient="auto" markerUnits="userSpaceOnUse"><path id="SvgjsPath1247" d="M0,2 L14,6 L0,11 L0,2" fill="#323232" stroke="#323232" stroke-width="2"></path></marker></defs><g id="SvgjsG1008" transform="translate(80.625,599)"><path id="SvgjsPath1009" d="M 23.333333333333332 0L 158.66666666666666 0C 189.77777777777777 0 189.77777777777777 70 158.66666666666666 70L 23.333333333333332 70C -7.777777777777778 70 -7.777777777777778 0 23.333333333333332 0Z" stroke="#323232" stroke-width="2" fill-opacity="1" fill="#ffffff"></path><g id="SvgjsG1010"><text id="SvgjsText1011" font-family="Verdana" text-anchor="middle" font-size="18px" width="140" fill="#000000" font-weight="400" align="middle" anchor="middle" family="Verdana" size="18px" weight="400" font-style="" y="20.8" transform="rotate(0)"><tspan id="SvgjsTspan1012" dy="22" x="91"><tspan id="SvgjsTspan1013" style="text-decoration:;">#</tspan><tspan id="SvgjsTspan1014" style="text-decoration:;font-weight: bold;fill: rgb(0, 102, 204);">[01]...</tspan><tspan id="SvgjsTspan1015" style="text-decoration:;">A1BC_</tspan></tspan></text></g></g><g id="SvgjsG1016"><path id="SvgjsPath1017" d="M80.625 634C 58.375 634 47.25 634 25 634" stroke="#323232" stroke-width="2" fill="none" marker-start="url(#SvgjsMarker1018)"></path></g><g id="SvgjsG1020" transform="translate(25,25)"><path id="SvgjsPath1021" d="M 0 0L 600.625 0L 600.625 413L 0 413Z" stroke="none" fill="none"></path><g id="SvgjsG1022"><text id="SvgjsText1023" font-family="Verdana" text-anchor="start" font-size="18px" width="599" fill="#323232" font-weight="400" align="middle" anchor="start" family="Verdana" size="18px" weight="400" font-style="" y="8.3" transform="rotate(0)"><tspan id="SvgjsTspan1024" dy="22" x="0"><tspan id="SvgjsTspan1025" style="text-decoration:;">[notation:</tspan></tspan><tspan id="SvgjsTspan1026" dy="22" x="0"><tspan id="SvgjsTspan1027" style="text-decoration:;">    assume insert (write on current cell and move all chars after </tspan></tspan><tspan id="SvgjsTspan1028" dy="22" x="0"><tspan id="SvgjsTspan1029" style="text-decoration:;">head right one more cell, it's easy to implement) is a built-in </tspan></tspan><tspan id="SvgjsTspan1030" dy="22" x="0"><tspan id="SvgjsTspan1031" style="text-decoration:;">functionality of TM</tspan></tspan><tspan id="SvgjsTspan1032" dy="22" x="0"><tspan id="SvgjsTspan1033" style="text-decoration:;">    assume input string is in proper form, i.e. no leading zero is </tspan></tspan><tspan id="SvgjsTspan1034" dy="22" x="0"><tspan id="SvgjsTspan1035" style="text-decoration:;">allowed, and the input cannot be zero</tspan></tspan><tspan id="SvgjsTspan1036" dy="22" x="0"><tspan id="SvgjsTspan1037" style="text-decoration:;">    process input string with functions in q2, so that an raw input </tspan></tspan><tspan id="SvgjsTspan1038" dy="22" x="0"><tspan id="SvgjsTspan1039" style="text-decoration:;">str will be initialized as # str A 1 B C _, where A, B, C are </tspan></tspan><tspan id="SvgjsTspan1040" dy="22" x="0"><tspan id="SvgjsTspan1041" style="text-decoration:;">delimiters</tspan></tspan><tspan id="SvgjsTspan1042" dy="22" x="0"><tspan id="SvgjsTspan1043" style="text-decoration:;">    indicate segments as #--, A--, B--, C--</tspan></tspan><tspan id="SvgjsTspan1044" dy="22" x="0"><tspan id="SvgjsTspan1045" style="text-decoration:;">    segments role as</tspan></tspan><tspan id="SvgjsTspan1046" dy="22" x="0"><tspan id="SvgjsTspan1047" style="text-decoration:;">        #--: binary string, discard a digit for each its processing</tspan></tspan><tspan id="SvgjsTspan1048" dy="22" x="0"><tspan id="SvgjsTspan1049" style="text-decoration:;">        A--: 2^m in 1s, where m is the exponent on that digit</tspan></tspan><tspan id="SvgjsTspan1050" dy="22" x="0"><tspan id="SvgjsTspan1051" style="text-decoration:;">        B--: a helper string for doubling A--</tspan></tspan><tspan id="SvgjsTspan1052" dy="22" x="0"><tspan id="SvgjsTspan1053" style="text-decoration:;">        C--: the 1s of every digit in binary string will be added here,</tspan></tspan><tspan id="SvgjsTspan1054" dy="22" x="0"><tspan id="SvgjsTspan1055" style="text-decoration:;">                this string is the final result</tspan></tspan><tspan id="SvgjsTspan1056" dy="22" x="0"><tspan id="SvgjsTspan1057" style="text-decoration:;">]</tspan></tspan></text></g></g><g id="SvgjsG1058"><path id="SvgjsPath1059" d="M262.625 634C 317.025 634 344.225 634 398.625 634" stroke="#323232" stroke-width="2" fill="none" marker-end="url(#SvgjsMarker1060)"></path></g><g id="SvgjsG1062" transform="translate(398.625,599)"><path id="SvgjsPath1063" d="M 23.333333333333332 0L 234.04166666666666 0C 265.15277777777777 0 265.15277777777777 70 234.04166666666666 70L 23.333333333333332 70C -7.777777777777778 70 -7.777777777777778 0 23.333333333333332 0Z" stroke="#323232" stroke-width="2" fill-opacity="1" fill="#ffffff"></path><g id="SvgjsG1064"><text id="SvgjsText1065" font-family="Verdana" text-anchor="middle" font-size="18px" width="195" fill="#000000" font-weight="400" align="middle" anchor="middle" family="Verdana" size="18px" weight="400" font-style="" y="20.8" transform="rotate(0)"><tspan id="SvgjsTspan1066" dy="22" x="129"><tspan id="SvgjsTspan1067" style="text-decoration:;">#[01]..↓A1...B...C..._</tspan></tspan></text></g></g><g id="SvgjsG1068" transform="translate(262.625,610)"><path id="SvgjsPath1069" d="M 0 0L 136 0L 136 20L 0 20Z" stroke="none" fill="none"></path><g id="SvgjsG1070"><text id="SvgjsText1071" font-family="Verdana" text-anchor="middle" font-size="18px" width="53" fill="#323232" font-weight="400" align="middle" anchor="middle" family="Verdana" size="18px" weight="400" font-style="" y="-4.199999999999999" transform="rotate(0)"><tspan id="SvgjsTspan1072" dy="22" x="68"><tspan id="SvgjsTspan1073" style="text-decoration:;">A → L</tspan></tspan></text></g></g><g id="SvgjsG1074"><path id="SvgjsPath1075" d="M110 599C 110 551 230 551 230 599" stroke="#323232" stroke-width="2" fill="none" marker-end="url(#SvgjsMarker1076)"></path></g><g id="SvgjsG1078" transform="translate(103.625,529)"><path id="SvgjsPath1079" d="M 0 0L 136 0L 136 20L 0 20Z" stroke="none" fill="none"></path><g id="SvgjsG1080"><text id="SvgjsText1081" font-family="Verdana" text-anchor="middle" font-size="18px" width="55" fill="#323232" font-weight="400" align="middle" anchor="middle" family="Verdana" size="18px" weight="400" font-style="" y="-15.7" transform="rotate(0)"><tspan id="SvgjsTspan1082" dy="22" x="68"><tspan id="SvgjsTspan1083" style="text-decoration:;">1 → R</tspan></tspan><tspan id="SvgjsTspan1084" dy="22" x="68"><tspan id="SvgjsTspan1085" style="text-decoration:;">0 → R</tspan></tspan></text></g></g><g id="SvgjsG1086"><path id="SvgjsPath1087" d="M656 634L773.625 505" stroke="#323232" stroke-width="2" fill="none" marker-end="url(#SvgjsMarker1088)"></path></g><g id="SvgjsG1090" transform="translate(773.625,470)"><path id="SvgjsPath1091" d="M 23.333333333333332 0L 158.66666666666666 0C 189.77777777777777 0 189.77777777777777 70 158.66666666666666 70L 23.333333333333332 70C -7.777777777777778 70 -7.777777777777778 0 23.333333333333332 0Z" stroke="#323232" stroke-width="2" fill-opacity="1" fill="#ffffff"></path><g id="SvgjsG1092"><text id="SvgjsText1093" font-family="Verdana" text-anchor="middle" font-size="18px" width="48" fill="#000000" font-weight="400" align="middle" anchor="middle" family="Verdana" size="18px" weight="400" font-style="" y="20.8" transform="rotate(0)"><tspan id="SvgjsTspan1094" dy="22" x="91"><tspan id="SvgjsTspan1095" style="text-decoration:;">↓ = 1</tspan></tspan></text></g></g><g id="SvgjsG1096" transform="translate(625.625,505)"><path id="SvgjsPath1097" d="M 0 0L 136 0L 136 20L 0 20Z" stroke="none" fill="none"></path><g id="SvgjsG1098"><text id="SvgjsText1099" font-family="Verdana" text-anchor="middle" font-size="18px" width="78" fill="#323232" font-weight="400" align="middle" anchor="middle" family="Verdana" size="18px" weight="400" font-style="" y="-4.199999999999999" transform="rotate(0)"><tspan id="SvgjsTspan1100" dy="22" x="68"><tspan id="SvgjsTspan1101" style="text-decoration:;">1 → x, R</tspan></tspan></text></g></g><g id="SvgjsG1102"><path id="SvgjsPath1103" d="M803 470C 803 420 928 420 928 470" stroke="#323232" stroke-width="2" fill="none" marker-end="url(#SvgjsMarker1104)"></path></g><g id="SvgjsG1106" transform="translate(796.625,400)"><path id="SvgjsPath1107" d="M 0 0L 136 0L 136 20L 0 20Z" stroke="none" fill="none"></path><g id="SvgjsG1108"><text id="SvgjsText1109" font-family="Verdana" text-anchor="middle" font-size="18px" width="56" fill="#323232" font-weight="400" align="middle" anchor="middle" family="Verdana" size="18px" weight="400" font-style="" y="-15.7" transform="rotate(0)"><tspan id="SvgjsTspan1110" dy="22" x="68"><tspan id="SvgjsTspan1111" style="text-decoration:;">1 → R</tspan></tspan><tspan id="SvgjsTspan1112" dy="22" x="68"><tspan id="SvgjsTspan1113" style="text-decoration:;">B → R</tspan></tspan></text></g></g><g id="SvgjsG1114"><path id="SvgjsPath1115" d="M955.625 505C 1010.0250000000001 505 1037.225 505 1091.625 505" stroke="#323232" stroke-width="2" fill="none" marker-end="url(#SvgjsMarker1116)"></path></g><g id="SvgjsG1118" transform="translate(955.625,481)"><path id="SvgjsPath1119" d="M 0 0L 136 0L 136 20L 0 20Z" stroke="none" fill="none"></path><g id="SvgjsG1120"><text id="SvgjsText1121" font-family="Verdana" text-anchor="middle" font-size="18px" width="53" fill="#323232" font-weight="400" align="middle" anchor="middle" family="Verdana" size="18px" weight="400" font-style="" y="-4.199999999999999" transform="rotate(0)"><tspan id="SvgjsTspan1122" dy="22" x="68"><tspan id="SvgjsTspan1123" style="text-decoration:;">C → L</tspan></tspan></text></g></g><g id="SvgjsG1124" transform="translate(1091.625,470)"><path id="SvgjsPath1125" d="M 0 0L 182 0L 182 70L 0 70Z" stroke="#323232" stroke-width="2" fill-opacity="1" fill="#ffffff"></path><g id="SvgjsG1126"><text id="SvgjsText1127" font-family="微软雅黑" text-anchor="middle" font-size="14px" width="130" fill="#323232" font-weight="400" align="middle" anchor="middle" family="微软雅黑" size="14px" weight="400" font-style="" y="14.9" transform="rotate(0)"><tspan id="SvgjsTspan1128" dy="17" x="91"><tspan id="SvgjsTspan1129" style="text-decoration:;">copy A-- to C--</tspan></tspan><tspan id="SvgjsTspan1130" dy="17" x="91"><tspan id="SvgjsTspan1131" style="text-decoration:;">refering to f(x) = 2x</tspan></tspan></text></g></g><g id="SvgjsG1132"><path id="SvgjsPath1133" d="M656 634C 957.45 634 1108.175 634 1409.625 634" stroke="#323232" stroke-width="2" fill="none" marker-end="url(#SvgjsMarker1134)"></path></g><g id="SvgjsG1136" transform="translate(937.625,610)"><path id="SvgjsPath1137" d="M 0 0L 136 0L 136 20L 0 20Z" stroke="none" fill="none"></path><g id="SvgjsG1138"><text id="SvgjsText1139" font-family="Verdana" text-anchor="middle" font-size="18px" width="78" fill="#323232" font-weight="400" align="middle" anchor="middle" family="Verdana" size="18px" weight="400" font-style="" y="-4.199999999999999" transform="rotate(0)"><tspan id="SvgjsTspan1140" dy="22" x="68"><tspan id="SvgjsTspan1141" style="text-decoration:;">0 → x, R</tspan></tspan></text></g></g><g id="SvgjsG1142"><path id="SvgjsPath1143" d="M1273.625 505L1409.625 634" stroke="#323232" stroke-width="2" fill="none" marker-end="url(#SvgjsMarker1144)"></path></g><g id="SvgjsG1146"><path id="SvgjsPath1147" d="M1436.1743114854953 599C 1431.787602518462 548.8596870698177 1562 547.6757698238683 1562 598.0076106038164" stroke="#323232" stroke-width="2" fill="none" marker-end="url(#SvgjsMarker1148)"></path></g><g id="SvgjsG1150" transform="translate(1432.625,529)"><path id="SvgjsPath1151" d="M 0 0L 136 0L 136 20L 0 20Z" stroke="none" fill="none"></path><g id="SvgjsG1152"><text id="SvgjsText1153" font-family="Verdana" text-anchor="middle" font-size="18px" width="78" fill="#323232" font-weight="400" align="middle" anchor="middle" family="Verdana" size="18px" weight="400" font-style="" y="-4.199999999999999" transform="rotate(0)"><tspan id="SvgjsTspan1154" dy="22" x="68"><tspan id="SvgjsTspan1155" style="text-decoration:;">1 → x, R</tspan></tspan></text></g></g><g id="SvgjsG1156" transform="translate(1727.625,599)"><path id="SvgjsPath1157" d="M 0 0L 182 0L 182 70L 0 70Z" stroke="#323232" stroke-width="2" fill-opacity="1" fill="#ffffff"></path><g id="SvgjsG1158"><text id="SvgjsText1159" font-family="微软雅黑" text-anchor="middle" font-size="14px" width="130" fill="#323232" font-weight="400" align="middle" anchor="middle" family="微软雅黑" size="14px" weight="400" font-style="" y="14.9" transform="rotate(0)"><tspan id="SvgjsTspan1160" dy="17" x="91"><tspan id="SvgjsTspan1161" style="text-decoration:;">copy A-- to B--</tspan></tspan><tspan id="SvgjsTspan1162" dy="17" x="91"><tspan id="SvgjsTspan1163" style="text-decoration:;">refering to f(x) = 2x</tspan></tspan></text></g></g><g id="SvgjsG1164" transform="translate(1409.625,599)"><path id="SvgjsPath1165" d="M 23.333333333333332 0L 158.66666666666666 0C 189.77777777777777 0 189.77777777777777 70 158.66666666666666 70L 23.333333333333332 70C -7.777777777777778 70 -7.777777777777778 0 23.333333333333332 0Z" stroke="#323232" stroke-width="2" fill-opacity="1" fill="#ffffff"></path><g id="SvgjsG1166"><text id="SvgjsText1167" font-family="Verdana" text-anchor="middle" font-size="18px" width="79" fill="#000000" font-weight="400" align="middle" anchor="middle" family="Verdana" size="18px" weight="400" font-style="" y="20.8" transform="rotate(0)"><tspan id="SvgjsTspan1168" dy="22" x="91"><tspan id="SvgjsTspan1169" style="text-decoration:;">clear B--</tspan></tspan></text></g></g><g id="SvgjsG1170"><path id="SvgjsPath1171" d="M1591.625 634C 1646.025 634 1673.225 634 1727.625 634" stroke="#323232" stroke-width="2" fill="none" marker-end="url(#SvgjsMarker1172)"></path></g><g id="SvgjsG1174" transform="translate(1591.625,613)"><path id="SvgjsPath1175" d="M 0 0L 136 0L 136 20L 0 20Z" stroke="none" fill="none"></path><g id="SvgjsG1176"><text id="SvgjsText1177" font-family="Verdana" text-anchor="middle" font-size="18px" width="53" fill="#323232" font-weight="400" align="middle" anchor="middle" family="Verdana" size="18px" weight="400" font-style="" y="-4.199999999999999" transform="rotate(0)"><tspan id="SvgjsTspan1178" dy="22" x="68"><tspan id="SvgjsTspan1179" style="text-decoration:;">C → L</tspan></tspan></text></g></g><g id="SvgjsG1180" transform="translate(1909.625,599)"><path id="SvgjsPath1181" d="M 0 0L 182 0L 182 70L 0 70Z" stroke="#323232" stroke-width="2" fill-opacity="1" fill="#ffffff"></path><g id="SvgjsG1182"><text id="SvgjsText1183" font-family="微软雅黑" text-anchor="middle" font-size="14px" width="130" fill="#323232" font-weight="400" align="middle" anchor="middle" family="微软雅黑" size="14px" weight="400" font-style="" y="14.9" transform="rotate(0)"><tspan id="SvgjsTspan1184" dy="17" x="91"><tspan id="SvgjsTspan1185" style="text-decoration:;">copy B-- to A--</tspan></tspan><tspan id="SvgjsTspan1186" dy="17" x="91"><tspan id="SvgjsTspan1187" style="text-decoration:;">refering to f(x) = 2x</tspan></tspan></text></g></g><g id="SvgjsG1188" transform="translate(1754,571)"><path id="SvgjsPath1189" d="M 0 0L 307.625 0L 307.625 20L 0 20Z" stroke="none" fill="none"></path><g id="SvgjsG1190"><text id="SvgjsText1191" font-family="Verdana" text-anchor="middle" font-size="18px" width="192" fill="#323232" font-weight="400" align="middle" anchor="middle" family="Verdana" size="18px" weight="400" font-style="" y="-4.199999999999999" transform="rotate(0)"><tspan id="SvgjsTspan1192" dy="22" x="154"><tspan id="SvgjsTspan1193" style="text-decoration:;">[result in double A--]</tspan></tspan></text></g></g><g id="SvgjsG1194"><path id="SvgjsPath1195" d="M2091.625 634C 2486 796 519 1241 527.3125 669" stroke="#323232" stroke-width="2" fill="none" marker-end="url(#SvgjsMarker1196)"></path></g><g id="SvgjsG1198" transform="translate(1024.625,992)"><path id="SvgjsPath1199" d="M 0 0L 136 0L 136 20L 0 20Z" stroke="none" fill="none"></path><g id="SvgjsG1200"><text id="SvgjsText1201" font-family="Verdana" text-anchor="middle" font-size="18px" width="53" fill="#323232" font-weight="400" align="middle" anchor="middle" family="Verdana" size="18px" weight="400" font-style="" y="-38.7" transform="rotate(0)"><tspan id="SvgjsTspan1202" dy="22" x="68"><tspan id="SvgjsTspan1203" style="text-decoration:;">1 → L</tspan></tspan><tspan id="SvgjsTspan1204" dy="22" x="68"><tspan id="SvgjsTspan1205" style="text-decoration:;">C → L</tspan></tspan><tspan id="SvgjsTspan1206" dy="22" x="68"><tspan id="SvgjsTspan1207" style="text-decoration:;">B → L</tspan></tspan><tspan id="SvgjsTspan1208" dy="22" x="68"><tspan id="SvgjsTspan1209" style="text-decoration:;">A → L</tspan></tspan></text></g></g><g id="SvgjsG1210" transform="translate(773.625,731)"><path id="SvgjsPath1211" d="M 23.333333333333332 0L 158.66666666666666 0C 189.77777777777777 0 189.77777777777777 70 158.66666666666666 70L 23.333333333333332 70C -7.777777777777778 70 -7.777777777777778 0 23.333333333333332 0Z" stroke="#323232" stroke-width="2" fill-opacity="1" fill="#ffffff"></path><g id="SvgjsG1212"><text id="SvgjsText1213" font-family="Verdana" text-anchor="middle" font-size="18px" width="111" fill="#000000" font-weight="400" align="middle" anchor="middle" family="Verdana" size="18px" weight="400" font-style="" y="20.8" transform="rotate(0)"><tspan id="SvgjsTspan1214" dy="22" x="91"><tspan id="SvgjsTspan1215" style="text-decoration:;">#A...B...C...</tspan></tspan></text></g></g><g id="SvgjsG1216"><path id="SvgjsPath1217" d="M656 634L773.625 766" stroke="#323232" stroke-width="2" fill="none" marker-end="url(#SvgjsMarker1218)"></path></g><g id="SvgjsG1220" transform="translate(625.625,745)"><path id="SvgjsPath1221" d="M 0 0L 136 0L 136 20L 0 20Z" stroke="none" fill="none"></path><g id="SvgjsG1222"><text id="SvgjsText1223" font-family="Verdana" text-anchor="middle" font-size="18px" width="58" fill="#323232" font-weight="400" align="middle" anchor="middle" family="Verdana" size="18px" weight="400" font-style="" y="-4.199999999999999" transform="rotate(0)"><tspan id="SvgjsTspan1224" dy="22" x="68"><tspan id="SvgjsTspan1225" style="text-decoration:;"># → R</tspan></tspan></text></g></g><g id="SvgjsG1226" transform="translate(1091.625,731)"><path id="SvgjsPath1227" d="M 23.333333333333332 0L 158.66666666666666 0C 189.77777777777777 0 189.77777777777777 70 158.66666666666666 70L 23.333333333333332 70C -7.777777777777778 70 -7.777777777777778 0 23.333333333333332 0Z" stroke="#323232" stroke-width="2" fill-opacity="1" fill="#e5e5e5"></path><g id="SvgjsG1228"><text id="SvgjsText1229" font-family="Verdana" text-anchor="middle" font-size="18px" width="28" fill="#000000" font-weight="400" align="middle" anchor="middle" family="Verdana" size="18px" weight="400" font-style="" y="20.8" transform="rotate(0)"><tspan id="SvgjsTspan1230" dy="22" x="91"><tspan id="SvgjsTspan1231" style="text-decoration:;">C--</tspan></tspan></text></g></g><g id="SvgjsG1232" transform="translate(796.625,662)"><path id="SvgjsPath1233" d="M 0 0L 136 0L 136 20L 0 20Z" stroke="none" fill="none"></path><g id="SvgjsG1234"><text id="SvgjsText1235" font-family="Verdana" text-anchor="middle" font-size="18px" width="79" fill="#323232" font-weight="400" align="middle" anchor="middle" family="Verdana" size="18px" weight="400" font-style="" y="-15.7" transform="rotate(0)"><tspan id="SvgjsTspan1236" dy="22" x="68"><tspan id="SvgjsTspan1237" style="text-decoration:;">1 → x, R</tspan></tspan><tspan id="SvgjsTspan1238" dy="22" x="68"><tspan id="SvgjsTspan1239" style="text-decoration:;">B → x, R</tspan></tspan></text></g></g><g id="SvgjsG1240"><path id="SvgjsPath1241" d="M804 731C 804 682.2 926 682.2 926 731" stroke="#323232" stroke-width="2" fill="none" marker-end="url(#SvgjsMarker1242)"></path></g><g id="SvgjsG1244"><path id="SvgjsPath1245" d="M955.625 766C 1010.0250000000001 766 1037.225 766 1091.625 766" stroke="#323232" stroke-width="2" fill="none" marker-end="url(#SvgjsMarker1246)"></path></g><g id="SvgjsG1248" transform="translate(955.625,741)"><path id="SvgjsPath1249" d="M 0 0L 136 0L 136 20L 0 20Z" stroke="none" fill="none"></path><g id="SvgjsG1250"><text id="SvgjsText1251" font-family="Verdana" text-anchor="middle" font-size="18px" width="54" fill="#323232" font-weight="400" align="middle" anchor="middle" family="Verdana" size="18px" weight="400" font-style="" y="-4.199999999999999" transform="rotate(0)"><tspan id="SvgjsTspan1252" dy="22" x="68"><tspan id="SvgjsTspan1253" style="text-decoration:;">C → x</tspan></tspan></text></g></g></svg>